<svg enable-background="new 0 0 100 100" height="100" viewBox="0 0 100 100" width="100" xmlns="http://www.w3.org/2000/svg"><path d="m61.864 83.241v-.07c.074-.042.126-.118.126-.21v-4.295c0-.136-.109-.246-.245-.246h-2.377l-4.239-14.837h.432c.405 0 .733-.328.733-.73v-.188-.239c0-.23-.109-.435-.278-.569-.125-.1-.28-.161-.455-.161h-.434c-2.586-11.488-3.438-42.58-3.515-45.589l1.21-1.402v-2.786l-2.02-1.97-.001-.015v-7.265c0-.339-.379-.615-.846-.615s-.845.276-.845.615v7.187l-.011.091-2.08 1.97v2.786l1.329 1.541c-.097 3.713-.961 34.12-3.511 45.451h-.427c-.173 0-.33.062-.455.161-.167.135-.276.339-.276.569v.266.162c0 .402.327.73.731.73h.424l-4.239 14.837h-2.349c-.135 0-.244.11-.244.246v4.295c0 .079.04.146.097.19v.09l-8.722 15.654h8.722s.886-11.491 11.883-11.625c10.997.134 11.883 11.625 11.883 11.625h8.721zm-15.831-4.696 1.593-10.351h2.111.488 2.111l1.593 10.351z"/></svg>